<?xml version="1.0" encoding="UTF-8"?>
<svg height="16px" viewBox="0 0 16 16" width="16px" xmlns="http://www.w3.org/2000/svg">
    <path d="m 8 4 c 0 1.65625 -1.34375 3 -3 3 s -3 -1.34375 -3 -3 s 1.34375 -3 3 -3 s 3 1.34375 3 3 z m 0 0"/>
    <path d="m 8 7 h 6 l -3 -7 z m 0 0"/>
    <path d="m 1 8 v 7 h 4 v -2 c 0 -1.070312 0.570312 -2.0625 1.5 -2.597656 c 0.457031 -0.261719 0.972656 -0.402344 1.5 -0.402344 s 1.042969 0.140625 1.5 0.402344 c 0.929688 0.535156 1.5 1.527344 1.5 2.597656 v 2 h 4 v -7 z m 0 0"/>
</svg>
