<?xml version="1.0" encoding="UTF-8"?>
<svg height="128px" viewBox="0 0 128 128" width="128px" xmlns="http://www.w3.org/2000/svg" xmlns:xlink="http://www.w3.org/1999/xlink">
    <linearGradient id="a" gradientTransform="matrix(1 0 0 0.894737 -8 -2.105263)" gradientUnits="userSpaceOnUse" x1="20" x2="124" y1="91.764709" y2="91.764709">
        <stop offset="0" stop-color="#e5a50a"/>
        <stop offset="0.0384615" stop-color="#f5c211"/>
        <stop offset="0.0769231" stop-color="#e5a50a"/>
        <stop offset="0.923077" stop-color="#e5a50a"/>
        <stop offset="0.961538" stop-color="#f5c211"/>
        <stop offset="1" stop-color="#e5a50a"/>
    </linearGradient>
    <radialGradient id="b" cx="31.88804754646" cy="27.04329782543" gradientUnits="userSpaceOnUse" r="30.06713838547">
        <stop offset="0" stop-color="#f66151"/>
        <stop offset="0.597573" stop-color="#e01b24"/>
        <stop offset="1" stop-color="#a51d2d"/>
    </radialGradient>
    <linearGradient id="c" gradientUnits="userSpaceOnUse" x1="72" x2="104" y1="34" y2="34">
        <stop offset="0" stop-color="#3584e4"/>
        <stop offset="0.5" stop-color="#62a0ea"/>
        <stop offset="1" stop-color="#1a5fb4"/>
    </linearGradient>
    <path d="m 20 48 c -4.433594 0 -8 3.566406 -8 8 v 52 c 0 4.417969 3.582031 8 8 8 h 18 c 1.105469 0 2 -0.894531 2 -2 v -8 h 0.128906 c 0.648438 -7.828125 5.078125 -14.84375 11.871094 -18.785156 c 3.648438 -2.105469 7.789062 -3.214844 12 -3.214844 s 8.351562 1.109375 12 3.214844 c 6.808594 3.933594 11.261719 10.949218 11.917969 18.785156 h 0.082031 v 8 c 0 1.105469 0.894531 2 2 2 h 18 c 4.417969 0 8 -3.582031 8 -8 v -52 c 0 -4.433594 -3.566406 -8 -8 -8 z m 0 0" fill="url(#a)"/>
    <path d="m 20 40 h 88 c 4.417969 0 8 3.582031 8 8 v 16 c 0 4.417969 -3.582031 8 -8 8 h -88 c -4.417969 0 -8 -3.582031 -8 -8 v -16 c 0 -4.417969 3.582031 -8 8 -8 z m 0 0" fill="#f6d32d"/>
    <path d="m 65 39 c 0 13.808594 -11.191406 25 -25 25 s -25 -11.191406 -25 -25 s 11.191406 -25 25 -25 s 25 11.191406 25 25 z m 0 0" fill="url(#b)"/>
    <path d="m 88 6 l -21.25 44.894531 l -0.296875 0.675781 l 0.046875 0.007813 c -0.316406 0.792969 -0.484375 1.605469 -0.5 2.421875 c 0 6.628906 9.851562 12 22 12 s 22 -5.371094 22 -12 c -0.003906 -0.816406 -0.15625 -1.628906 -0.460938 -2.429688 h 0.007813 l -0.042969 -0.09375 c -0.0625 -0.15625 -0.128906 -0.304687 -0.199218 -0.457031 z m 0 0" fill="url(#c)"/>
</svg>
